# xmcd
#
# Track frame offsets: 
#        150
#        19051
#        32966
#        62002
#        91425
#        113270
#        147756
#        176926
#        194848
#        221141
#
# Disc length: 3375 seconds
#
# Revision: 1
# Processed by: cddbd v1.5.2PL0 Copyright (c) Steve Scherf et al.
# Submitted via: ExactAudioCopy v0.95b4
#
DISCID=930d2d0a
DTITLE=Raphael Wressnig and Enrico Crivellaro - Mosquito Bite
DYEAR=2006
DGENRE=Jazz
TTITLE0=Speedin'
TTITLE1=Mosquito Bite
TTITLE2=Wally's March
TTITLE3=Boom Bello
TTITLE4=West 43rd St. Blues
TTITLE5=Cherokee
TTITLE6=Frankie Lee Goes Uptown
TTITLE7=Banana Boogaloo
TTITLE8=A-Level
TTITLE9=Sugar
EXTD=YEAR: 2006
EXTT0=
EXTT1=
EXTT2=
EXTT3=
EXTT4=
EXTT5=
EXTT6=
EXTT7=
EXTT8=
EXTT9=
PLAYORDER=
